
Complete name                    : Jolene.2008.avi
Format                           : AVI
File size                        : 1.37 GiB
Duration                         : 1h 55mn
Overall bit rate                 : 1 693 Kbps

Video

Format                           : MPEG-4 Visual
Codec ID/Hint                    : XviD
Duration                         : 1h 55mn
Bit rate                         : 1 234 Kbps
Width                            : 720 pixels
Height                           : 436 pixels
Display aspect ratio             : 2.35:1
Stream size                      : 1 023 MiB (73%)
Writing library                  : XviD 1.1.2 (UTC 2006-11-01)

Audio

Format                           : AC-3
Duration                         : 1h 55mn
Bit rate                         : 448 Kbps
Channel(s)                       : 6 channels
Channel positions                : Front: L C R, Side: L R, LFE
Sampling rate                    : 48.0 KHz
Bit depth                        : 16 bits
Stream size                      : 371 MiB (26%)


Text #1
Language                         : Swedish

Text #2
Language                         : Norwegian

Text #3
Language                         : Danish

Text #4
Language                         : Finnish